<mxfile host="app.diagrams.net" modified="2020-12-13T15:31:16.664Z" agent="5.0 (Macintosh; Intel Mac OS X 10_15_6) AppleWebKit/605.1.15 (KHTML, like Gecko) Version/13.1.2 Safari/605.1.15" etag="g5n8Y28-r7haQYoUm5Un" version="13.10.9" type="github">
  <diagram id="prtHgNgQTEPvFCAcTncT" name="Page-1">
    <mxGraphModel dx="946" dy="572" grid="1" gridSize="10" guides="1" tooltips="1" connect="1" arrows="1" fold="1" page="1" pageScale="1" pageWidth="827" pageHeight="1169" math="0" shadow="0">
      <root>
        <mxCell id="0" />
        <mxCell id="1" parent="0" />
        <mxCell id="Y9chQp7BpnF_pKb0OjWG-13" style="edgeStyle=none;rounded=0;orthogonalLoop=1;jettySize=auto;html=1;exitX=0.5;exitY=1;exitDx=0;exitDy=0;entryX=0.5;entryY=0;entryDx=0;entryDy=0;startArrow=none;startFill=0;endArrow=classic;endFill=1;targetPerimeterSpacing=0;" edge="1" parent="1" source="Y9chQp7BpnF_pKb0OjWG-1" target="Y9chQp7BpnF_pKb0OjWG-4">
          <mxGeometry relative="1" as="geometry" />
        </mxCell>
        <mxCell id="Y9chQp7BpnF_pKb0OjWG-1" value="微信公众号" style="rounded=0;whiteSpace=wrap;html=1;" vertex="1" parent="1">
          <mxGeometry x="370" y="90" width="70" height="30" as="geometry" />
        </mxCell>
        <mxCell id="Y9chQp7BpnF_pKb0OjWG-12" style="rounded=0;orthogonalLoop=1;jettySize=auto;html=1;exitX=0.5;exitY=1;exitDx=0;exitDy=0;entryX=0.5;entryY=0;entryDx=0;entryDy=0;startArrow=none;startFill=0;endArrow=classic;endFill=1;targetPerimeterSpacing=0;" edge="1" parent="1" source="Y9chQp7BpnF_pKb0OjWG-2" target="Y9chQp7BpnF_pKb0OjWG-4">
          <mxGeometry relative="1" as="geometry" />
        </mxCell>
        <mxCell id="Y9chQp7BpnF_pKb0OjWG-2" value="API" style="rounded=0;whiteSpace=wrap;html=1;" vertex="1" parent="1">
          <mxGeometry x="270" y="90" width="70" height="30" as="geometry" />
        </mxCell>
        <mxCell id="Y9chQp7BpnF_pKb0OjWG-14" style="edgeStyle=none;rounded=0;orthogonalLoop=1;jettySize=auto;html=1;exitX=0.5;exitY=1;exitDx=0;exitDy=0;entryX=0.5;entryY=0;entryDx=0;entryDy=0;startArrow=none;startFill=0;endArrow=classic;endFill=1;targetPerimeterSpacing=0;" edge="1" parent="1" source="Y9chQp7BpnF_pKb0OjWG-3" target="Y9chQp7BpnF_pKb0OjWG-4">
          <mxGeometry relative="1" as="geometry" />
        </mxCell>
        <mxCell id="Y9chQp7BpnF_pKb0OjWG-3" value="H5" style="rounded=0;whiteSpace=wrap;html=1;" vertex="1" parent="1">
          <mxGeometry x="468.5" y="90" width="70" height="30" as="geometry" />
        </mxCell>
        <mxCell id="Y9chQp7BpnF_pKb0OjWG-4" value="" style="rounded=0;whiteSpace=wrap;html=1;fillColor=none;" vertex="1" parent="1">
          <mxGeometry x="270" y="190" width="270" height="50" as="geometry" />
        </mxCell>
        <mxCell id="Y9chQp7BpnF_pKb0OjWG-11" style="edgeStyle=orthogonalEdgeStyle;rounded=0;orthogonalLoop=1;jettySize=auto;html=1;exitX=1;exitY=0.5;exitDx=0;exitDy=0;entryX=0;entryY=0.5;entryDx=0;entryDy=0;targetPerimeterSpacing=0;endArrow=none;endFill=0;startArrow=classic;startFill=1;" edge="1" parent="1" source="Y9chQp7BpnF_pKb0OjWG-6" target="Y9chQp7BpnF_pKb0OjWG-7">
          <mxGeometry relative="1" as="geometry">
            <Array as="points">
              <mxPoint x="410" y="215" />
              <mxPoint x="410" y="215" />
            </Array>
          </mxGeometry>
        </mxCell>
        <mxCell id="Y9chQp7BpnF_pKb0OjWG-6" value="Auth" style="rounded=0;whiteSpace=wrap;html=1;" vertex="1" parent="1">
          <mxGeometry x="300" y="200" width="70" height="30" as="geometry" />
        </mxCell>
        <mxCell id="Y9chQp7BpnF_pKb0OjWG-7" value="网关" style="rounded=0;whiteSpace=wrap;html=1;" vertex="1" parent="1">
          <mxGeometry x="440" y="200" width="70" height="30" as="geometry" />
        </mxCell>
        <mxCell id="Y9chQp7BpnF_pKb0OjWG-15" value="" style="shape=mxgraph.arrows.arrow_down;html=1;verticalLabelPosition=bottom;verticalAlign=top;strokeWidth=1;strokeColor=#000000;fillColor=none;" vertex="1" parent="1">
          <mxGeometry x="385" y="250" width="40" height="50" as="geometry" />
        </mxCell>
        <mxCell id="Y9chQp7BpnF_pKb0OjWG-16" value="" style="rounded=0;whiteSpace=wrap;html=1;strokeWidth=1;fillColor=none;" vertex="1" parent="1">
          <mxGeometry x="268.5" y="310" width="270" height="90" as="geometry" />
        </mxCell>
        <mxCell id="Y9chQp7BpnF_pKb0OjWG-17" value="手机银行" style="rounded=0;whiteSpace=wrap;html=1;" vertex="1" parent="1">
          <mxGeometry x="278.5" y="320" width="70" height="30" as="geometry" />
        </mxCell>
        <mxCell id="Y9chQp7BpnF_pKb0OjWG-18" value="企富通" style="rounded=0;whiteSpace=wrap;html=1;" vertex="1" parent="1">
          <mxGeometry x="368.5" y="320" width="70" height="30" as="geometry" />
        </mxCell>
        <mxCell id="Y9chQp7BpnF_pKb0OjWG-19" value="理财" style="rounded=0;whiteSpace=wrap;html=1;" vertex="1" parent="1">
          <mxGeometry x="458.5" y="320" width="70" height="30" as="geometry" />
        </mxCell>
        <mxCell id="Y9chQp7BpnF_pKb0OjWG-20" value="网贷" style="rounded=0;whiteSpace=wrap;html=1;" vertex="1" parent="1">
          <mxGeometry x="278.5" y="360" width="70" height="30" as="geometry" />
        </mxCell>
        <mxCell id="Y9chQp7BpnF_pKb0OjWG-21" value="聚付汇" style="rounded=0;whiteSpace=wrap;html=1;" vertex="1" parent="1">
          <mxGeometry x="368.5" y="360" width="70" height="30" as="geometry" />
        </mxCell>
        <mxCell id="Y9chQp7BpnF_pKb0OjWG-22" value="手机银行" style="rounded=0;whiteSpace=wrap;html=1;" vertex="1" parent="1">
          <mxGeometry x="458.5" y="360" width="70" height="30" as="geometry" />
        </mxCell>
        <mxCell id="Y9chQp7BpnF_pKb0OjWG-23" value="" style="shape=mxgraph.arrows.arrow_down;html=1;verticalLabelPosition=bottom;verticalAlign=top;strokeWidth=1;strokeColor=#000000;fillColor=none;" vertex="1" parent="1">
          <mxGeometry x="383.5" y="410" width="40" height="50" as="geometry" />
        </mxCell>
        <mxCell id="Y9chQp7BpnF_pKb0OjWG-24" value="连接平台" style="rounded=0;whiteSpace=wrap;html=1;strokeWidth=1;fillColor=none;" vertex="1" parent="1">
          <mxGeometry x="268.5" y="470" width="270" height="30" as="geometry" />
        </mxCell>
        <mxCell id="Y9chQp7BpnF_pKb0OjWG-26" value="" style="shape=mxgraph.arrows.arrow_down;html=1;verticalLabelPosition=bottom;verticalAlign=top;strokeWidth=1;strokeColor=#000000;fillColor=none;" vertex="1" parent="1">
          <mxGeometry x="383.5" y="510" width="40" height="50" as="geometry" />
        </mxCell>
        <mxCell id="Y9chQp7BpnF_pKb0OjWG-27" value="银联" style="rounded=0;whiteSpace=wrap;html=1;" vertex="1" parent="1">
          <mxGeometry x="280" y="580" width="50" height="30" as="geometry" />
        </mxCell>
        <mxCell id="Y9chQp7BpnF_pKb0OjWG-28" value="网联" style="rounded=0;whiteSpace=wrap;html=1;" vertex="1" parent="1">
          <mxGeometry x="348.5" y="580" width="50" height="30" as="geometry" />
        </mxCell>
        <mxCell id="Y9chQp7BpnF_pKb0OjWG-29" value="央行" style="rounded=0;whiteSpace=wrap;html=1;" vertex="1" parent="1">
          <mxGeometry x="414" y="580" width="50" height="30" as="geometry" />
        </mxCell>
        <mxCell id="Y9chQp7BpnF_pKb0OjWG-30" value="宝付" style="rounded=0;whiteSpace=wrap;html=1;" vertex="1" parent="1">
          <mxGeometry x="478.5" y="580" width="50" height="30" as="geometry" />
        </mxCell>
        <mxCell id="Y9chQp7BpnF_pKb0OjWG-31" value="" style="rounded=0;whiteSpace=wrap;html=1;strokeWidth=1;fillColor=none;" vertex="1" parent="1">
          <mxGeometry x="267" y="570" width="270" height="50" as="geometry" />
        </mxCell>
        <mxCell id="Y9chQp7BpnF_pKb0OjWG-33" style="edgeStyle=none;rounded=0;orthogonalLoop=1;jettySize=auto;html=1;exitX=0.5;exitY=1;exitDx=0;exitDy=0;startArrow=none;startFill=0;endArrow=classic;endFill=1;targetPerimeterSpacing=0;" edge="1" parent="1" source="Y9chQp7BpnF_pKb0OjWG-27" target="Y9chQp7BpnF_pKb0OjWG-27">
          <mxGeometry relative="1" as="geometry" />
        </mxCell>
      </root>
    </mxGraphModel>
  </diagram>
</mxfile>
